<?xml version="1.0" standalone="no"?>
<!DOCTYPE svg PUBLIC "-//W3C//DTD SVG 20010904//EN"
 "http://www.w3.org/TR/2001/REC-SVG-20010904/DTD/svg10.dtd">
<svg version="1.0" xmlns="http://www.w3.org/2000/svg"
 width="144.000000pt" height="144.000000pt" viewBox="0 0 144.000000 144.000000"
 preserveAspectRatio="xMidYMid meet">

<g transform="translate(0.000000,144.000000) scale(0.100000,-0.100000)"
fill="#000000" stroke="none">
<path d="M670 1307 c0 -15 -7 -30 -15 -33 -8 -4 -15 -16 -15 -29 0 -27 -24
-49 -44 -42 -11 4 -13 -2 -9 -31 4 -28 0 -44 -15 -62 -19 -23 -22 -24 -71 -14
-46 9 -51 9 -45 -5 14 -35 17 -91 4 -91 -7 0 9 -15 36 -32 54 -37 90 -81 80
-97 -9 -14 -34 -1 -67 33 -17 18 -31 23 -46 19 -14 -3 -39 4 -67 21 l-44 26
16 -41 c12 -31 13 -45 5 -59 -10 -14 -6 -23 18 -46 33 -31 36 -50 13 -82 -17
-25 -22 -21 66 -46 62 -17 130 -68 130 -96 0 -23 -31 -34 -77 -25 -19 3 -40 2
-47 -4 -8 -6 -26 -7 -55 0 -24 5 -46 8 -48 5 -3 -2 18 -21 46 -42 51 -38 62
-58 39 -67 -7 -2 21 -11 63 -21 73 -16 119 -38 119 -56 0 -5 -23 -16 -50 -25
-49 -16 -67 -35 -33 -35 9 0 36 -12 60 -26 26 -15 55 -24 71 -22 l27 3 6 -110
5 -110 2 102 c2 100 2 102 31 122 16 12 43 24 60 27 20 4 31 13 33 27 2 16 14
24 46 32 24 5 40 13 36 17 -4 4 -1 14 6 23 13 16 10 17 -95 19 -33 1 -40 5
-40 21 0 26 40 45 97 45 65 0 80 7 67 31 -13 25 4 57 36 65 14 4 31 21 42 44
l19 37 -44 -19 c-32 -14 -47 -17 -52 -9 -5 8 -17 7 -43 -4 -48 -20 -84 -19
-95 3 -23 43 47 111 123 120 36 4 45 8 45 24 0 11 9 32 19 47 12 16 18 36 15
48 -3 12 0 31 6 43 11 21 10 22 -6 15 -11 -5 -34 -9 -52 -11 -18 -1 -41 -9
-50 -17 -55 -48 -89 -21 -66 52 29 93 55 203 49 209 -3 3 -16 -5 -30 -18 -21
-19 -25 -21 -25 -7 0 23 -13 21 -35 -3 -10 -11 -24 -20 -32 -20 -21 0 -35 47
-24 86 9 31 8 32 -10 21 -23 -14 -39 2 -39 41 0 12 -4 21 -9 20 -5 -2 -17 6
-25 17 -15 19 -15 19 -16 -8z"/>
</g>
</svg>
